HIERARCHY
ROOT root
{
	OFFSET 0.000000 0.000000 0.000000
	CHANNELS 6 Xposition Yposition Zposition Zrotation Yrotation Xrotation
	JOINT lhip
	{
		OFFSET 0.058581 -0.082280 -0.017664
		CHANNELS 3 Zrotation Yrotation Xrotation
		JOINT lknee
		{
			OFFSET 0.043451 -0.386469 0.008037
			CHANNELS 3 Zrotation Yrotation Xrotation
			JOINT lankle
			{
				OFFSET -0.014790 -0.426874 -0.037428
				CHANNELS 3 Zrotation Yrotation Xrotation
				JOINT ltoe
				{
					OFFSET 0.041054 -0.060286 0.122042
					CHANNELS 3 Zrotation Yrotation Xrotation
					End Site
					{
						OFFSET 0.000000 0.000000 0.000000
					}
				}
			}
		}
	}
	JOINT rhip
	{
		OFFSET -0.060310 -0.090513 -0.013543
		CHANNELS 3 Zrotation Yrotation Xrotation
		JOINT rknee
		{
			OFFSET -0.043257 -0.383688 -0.004843
			CHANNELS 3 Zrotation Yrotation Xrotation
			JOINT rankle
			{
				OFFSET 0.019056 -0.420046 -0.034562
				CHANNELS 3 Zrotation Yrotation Xrotation
				JOINT rtoe
				{
					OFFSET -0.034840 -0.062106 0.130323
					CHANNELS 3 Zrotation Yrotation Xrotation
					End Site
					{
						OFFSET 0.000000 0.000000 0.000000
					}
				}
			}
		}
	}
	JOINT lowerback
	{
		OFFSET 0.004439 0.124404 -0.038385
		CHANNELS 3 Zrotation Yrotation Xrotation
		JOINT upperback
		{
			OFFSET 0.004488 0.137956 0.026820
			CHANNELS 3 Zrotation Yrotation Xrotation
			JOINT chest
			{
				OFFSET -0.002265 0.056032 0.002855
				CHANNELS 3 Zrotation Yrotation Xrotation
				JOINT lowerneck
				{
					OFFSET -0.013390 0.211636 -0.033468
					CHANNELS 3 Zrotation Yrotation Xrotation
					JOINT upperneck
					{
						OFFSET 0.010113 0.088937 0.050410
						CHANNELS 3 Zrotation Yrotation Xrotation
						End Site
						{
							OFFSET 0.000000 0.000000 0.000000
						}
					}
				}
				JOINT lclavicle
				{
					OFFSET 0.071702 0.114000 -0.018898
					CHANNELS 3 Zrotation Yrotation Xrotation
					JOINT lshoulder
					{
						OFFSET 0.122921 0.045205 -0.019046
						CHANNELS 3 Zrotation Yrotation Xrotation
						JOINT lelbow
						{
							OFFSET 0.255332 -0.015649 -0.022946
							CHANNELS 3 Zrotation Yrotation Xrotation
							JOINT lwrist
							{
								OFFSET 0.265709 0.012698 -0.007375
								CHANNELS 3 Zrotation Yrotation Xrotation
								End Site
								{
									OFFSET 0.000000 0.000000 0.000000
								}
							}
						}
					}
				}
				JOINT rclavicle
				{
					OFFSET -0.082954 0.112472 -0.023707
					CHANNELS 3 Zrotation Yrotation Xrotation
					JOINT rshoulder
					{
						OFFSET -0.113228 0.046853 -0.008472
						CHANNELS 3 Zrotation Yrotation Xrotation
						JOINT relbow
						{
							OFFSET -0.260127 -0.014369 -0.031269
							CHANNELS 3 Zrotation Yrotation Xrotation
							JOINT rwrist
							{
								OFFSET -0.269108 0.006794 -0.006027
								CHANNELS 3 Zrotation Yrotation Xrotation
								End Site
								{
									OFFSET 0.000000 0.000000 0.000000
								}
							}
						}
					}
				}
			}
		}
	}
}
MOTION
Frames: 16
Frame Time: 0.033333
0.006046 -1.263134 0.986517 -2.546196 -1.677144 83.178637 -3.337960 1.306039 7.597186 0.583573 -8.981927 0.399761 4.261386 9.783491 -9.940247 0.000000 -0.000000 0.000000 -1.609296 -4.061412 6.499139 -2.392367 -0.136040 -0.341274 1.504543 -9.915055 -9.878442 0.000000 -0.000000 0.000000 -3.797132 4.725916 3.784812 -1.457250 -2.388911 15.457108 -1.046754 0.035559 -2.394803 3.299755 5.962320 -8.467361 6.483617 1.160663 -2.418499 -30.693127 -12.058700 6.693497 -47.387452 -8.652193 8.873293 2.971441 -20.651454 0.700752 -2.885066 -0.905672 2.501860 33.122429 14.285135 12.689797 53.196513 9.204205 11.467265 -10.789530 21.196136 -10.294293 1.375111 2.751730 -5.396393 
0.006354 -1.263193 0.986444 -2.494666 -1.687860 83.177447 -3.398224 1.213047 7.586430 0.608060 -8.971896 0.425540 4.164129 9.799702 -9.979636 0.000000 -0.000000 0.000000 -1.642176 -4.038913 6.495854 -2.393444 -0.149606 -0.305163 1.512215 -9.930708 -9.891815 0.000000 -0.000000 0.000000 -3.722335 4.704269 3.812797 -1.541057 -2.378295 15.411466 -1.079276 0.017282 -2.391186 3.320956 5.780735 -8.370300 6.504838 1.073841 -2.412270 -30.735750 -12.081855 6.695054 -47.346031 -8.627666 9.017830 3.018564 -20.737933 0.749482 -2.793213 -0.943895 2.283496 33.059416 14.349167 12.668696 53.279125 9.081967 11.512157 -10.954913 21.209052 -10.440707 1.457743 2.825778 -5.817766 
0.006383 -1.263221 0.986442 -2.465251 -1.697617 83.174781 -3.404807 1.180759 7.584848 0.589734 -9.012258 0.432572 4.144051 9.787536 -10.007288 0.000000 -0.000000 0.000000 -1.655433 -4.020909 6.512974 -2.388596 -0.161335 -0.323268 1.519028 -9.959776 -9.901847 0.000000 -0.000000 0.000000 -3.760787 4.719491 3.865916 -1.562041 -2.363755 15.349349 -1.075875 -0.003367 -2.391060 3.384277 5.583016 -8.352953 6.580169 0.951036 -2.431336 -30.742288 -12.170203 6.715637 -47.261941 -8.635388 9.088703 2.956031 -20.738400 0.790574 -2.566401 -0.957067 2.252953 33.042683 14.417414 12.705748 53.273558 9.004328 11.562186 -10.936374 21.231009 -10.379808 1.317379 2.861807 -5.944353 
0.006425 -1.263203 0.986432 -2.468563 -1.687259 83.234076 -3.385567 1.176673 7.539141 0.584371 -8.950847 0.387210 4.113736 9.796225 -9.936679 0.000000 -0.000000 0.000000 -1.632240 -4.014551 6.429717 -2.412702 -0.190015 -0.287754 1.569979 -9.972217 -9.873481 0.000000 -0.000000 0.000000 -3.798393 4.751537 3.810180 -1.566200 -2.331061 15.284252 -1.107739 0.021868 -2.330993 3.419915 5.513521 -8.352774 6.735526 0.612935 -2.540648 -30.536878 -12.298638 6.623176 -47.294160 -8.705705 9.263585 2.849827 -20.703592 1.049860 -2.555824 -0.971536 2.246717 32.964331 14.486087 12.741787 53.326101 8.990779 11.611120 -10.932626 21.150456 -10.214419 1.234542 2.882877 -5.938454 
0.006459 -1.263159 0.986451 -2.464877 -1.684600 83.243662 -3.382561 1.168774 7.537289 0.586504 -8.960264 0.367923 4.110977 9.777240 -9.944629 0.000000 -0.000000 0.000000 -1.638145 -4.020898 6.413323 -2.409024 -0.189687 -0.270831 1.582370 -9.971409 -9.870686 0.000000 -0.000000 0.000000 -3.808581 4.751489 3.793331 -1.572599 -2.327049 15.292232 -1.115611 0.037072 -2.325151 3.431686 5.489509 -8.322960 6.814508 0.453086 -2.548843 -30.467502 -12.335971 6.626244 -47.309529 -8.733121 9.279404 2.839133 -20.733691 1.169149 -2.648953 -0.950033 2.276288 32.903207 14.522950 12.764098 53.367165 8.985995 11.627944 -10.911387 21.169132 -10.078631 1.192748 2.841875 -5.944600 
0.006477 -1.263048 0.986552 -2.409810 -1.679526 83.242608 -3.372194 1.200395 7.520064 0.597702 -8.953052 0.395915 4.080263 9.762166 -9.885748 0.000000 -0.000000 0.000000 -1.632819 -4.024594 6.425939 -2.413596 -0.243939 -0.293886 1.612019 -9.973469 -9.832685 0.000000 -0.000000 0.000000 -3.829742 4.736796 3.846690 -1.598328 -2.324880 15.195556 -1.109916 0.040845 -2.287992 3.473670 5.436570 -8.290142 6.886807 0.380666 -2.573867 -30.407392 -12.412771 6.672379 -47.255961 -8.734290 9.352256 2.802671 -20.865853 1.324825 -2.578251 -0.921596 2.294663 32.764456 14.614650 12.809692 53.468064 9.035423 11.614452 -10.899216 21.105030 -10.198806 1.267713 2.832257 -6.349256 
0.006510 -1.262781 0.986584 -2.345426 -1.658196 83.256653 -3.353276 1.174301 7.476773 0.600533 -8.998636 0.407135 4.079606 9.789304 -9.866343 0.000000 -0.000000 0.000000 -1.609865 -3.990554 6.417262 -2.402964 -0.280634 -0.314667 1.609524 -10.065305 -9.820056 0.000000 -0.000000 0.000000 -3.843052 4.737664 3.890222 -1.600648 -2.331460 15.099257 -1.087680 0.023698 -2.218031 3.483253 5.440719 -8.244413 6.967256 0.331474 -2.727882 -30.344365 -12.540471 6.713427 -47.122175 -8.785527 9.393842 2.627263 -20.874721 1.719954 -2.897279 -0.984551 2.288182 32.690687 14.693403 12.830014 53.543081 9.008734 11.621642 -10.995535 21.181018 -10.215350 1.398149 2.870926 -6.599503 
0.006486 -1.262633 0.986683 -2.367581 -1.648112 83.246796 -3.339803 1.164815 7.483131 0.597422 -9.051067 0.410595 4.133859 9.745155 -9.923786 0.000000 -0.000000 0.000000 -1.606349 -4.011809 6.406774 -2.389220 -0.249315 -0.292466 1.638516 -10.024742 -9.807629 0.000000 -0.000000 0.000000 -3.837673 4.772816 3.910525 -1.621301 -2.316631 15.128446 -1.109358 0.017118 -2.269365 3.507034 5.404505 -8.263858 6.970161 0.322942 -2.610580 -30.382199 -12.596522 6.780343 -46.915244 -8.770697 9.392274 2.515610 -20.985172 1.836459 -2.899230 -0.994641 2.393025 32.735682 14.698265 12.854319 53.520009 9.016575 11.621377 -11.030769 21.283240 -10.170252 1.433814 2.846139 -6.578962 
0.006560 -1.262510 0.986774 -2.327570 -1.643452 83.252478 -3.357343 1.109319 7.458720 0.609870 -9.094645 0.415801 4.174383 9.759113 -9.935490 0.000000 -0.000000 0.000000 -1.600761 -4.000734 6.397087 -2.395957 -0.223812 -0.287168 1.659614 -10.096254 -9.806951 0.000000 -0.000000 0.000000 -3.860229 4.745282 3.899897 -1.642935 -2.343592 15.133961 -1.127104 0.019270 -2.275077 3.558973 5.345541 -8.290075 6.990648 0.413102 -2.454248 -30.383408 -12.570917 6.739308 -46.774846 -8.792861 9.396546 2.503795 -20.939905 2.038626 -3.178796 -1.092155 2.252978 32.732375 14.716402 12.849384 53.535650 9.038152 11.681219 -11.040571 21.367356 -10.067371 1.484658 3.002146 -6.661244 
0.006577 -1.262412 0.986821 -2.317255 -1.637321 83.276074 -3.351886 1.129039 7.426754 0.606958 -9.067091 0.415130 4.154409 9.778814 -9.895840 0.000000 -0.000000 0.000000 -1.581619 -3.993066 6.375884 -2.411196 -0.213321 -0.312129 1.645457 -10.129635 -9.787617 0.000000 -0.000000 0.000000 -3.855331 4.723068 3.933546 -1.656518 -2.342770 15.008770 -1.154098 -0.001397 -2.259965 3.574383 5.237066 -8.335703 7.010790 0.354590 -2.237271 -30.400195 -12.485285 6.727557 -46.731415 -8.805899 9.445667 2.549319 -20.853587 2.061352 -3.154685 -1.075071 2.217260 32.740995 14.692113 12.760319 53.572478 9.073104 11.744909 -11.024467 21.294680 -10.137367 1.538653 3.030796 -6.828221 
0.006244 -1.262249 0.986839 -2.382374 -1.547559 83.389426 -3.187350 1.191696 7.314130 0.549659 -9.011829 0.377051 4.150374 9.784583 -9.860204 0.000000 -0.000000 0.000000 -1.404642 -3.976100 6.249499 -2.475089 -0.191925 -0.349718 1.648844 -10.153782 -9.752229 0.000000 -0.000000 0.000000 -3.852127 4.682350 3.926279 -1.614411 -2.340156 14.737638 -1.164217 0.019841 -2.292497 3.621421 5.114266 -8.336680 7.065297 0.179151 -1.828187 -30.346802 -12.313492 6.656578 -46.838389 -8.779937 9.574453 2.614624 -20.656355 2.038743 -3.140115 -1.019063 2.160734 32.690213 14.551458 12.630491 53.707544 9.107042 11.827343 -11.041866 21.231809 -10.165908 1.814932 3.045129 -7.041543 
0.006214 -1.262250 0.986734 -2.409073 -1.527096 83.461649 -3.178210 1.163980 7.271839 0.578170 -9.031070 0.288894 4.206200 9.758503 -9.860799 0.000000 -0.000000 0.000000 -1.346039 -3.974385 6.175100 -2.517997 -0.167973 -0.372142 1.636363 -10.177374 -9.741151 0.000000 -0.000000 0.000000 -3.829377 4.675852 3.917520 -1.619734 -2.330740 14.545298 -1.191708 0.040925 -2.280901 3.591744 4.986819 -8.384468 7.085238 0.068372 -1.612802 -30.277589 -12.227044 6.593375 -46.927727 -8.764690 9.698673 2.610294 -20.543135 2.052794 -3.126778 -1.006824 2.174919 32.655596 14.462085 12.507004 53.810533 9.066269 11.927935 -11.065879 21.229861 -10.117704 1.881210 3.014657 -7.068391 
0.006245 -1.262091 0.986656 -2.459590 -1.529032 83.473645 -3.182365 1.182741 7.241921 0.581619 -8.956390 0.327320 4.160643 9.783598 -9.760996 0.000000 -0.000000 0.000000 -1.342166 -3.933650 6.177103 -2.527520 -0.168633 -0.436790 1.598949 -10.124231 -9.728785 0.000000 -0.000000 0.000000 -3.824597 4.640358 3.969380 -1.624944 -2.340684 14.468422 -1.201711 0.086073 -2.330135 3.538112 4.735478 -8.532792 7.125462 -0.181648 -1.526735 -30.353972 -12.203466 6.637366 -46.930950 -8.693743 9.646775 2.664952 -20.576143 1.695980 -2.811600 -1.016068 2.208220 32.678725 14.535058 12.478663 53.765202 9.036153 11.934195 -11.031685 21.276571 -10.146223 1.802826 3.061821 -6.981672 
0.006294 -1.262011 0.986596 -2.493227 -1.509900 83.400488 -3.159506 1.194790 7.258083 0.543542 -8.904141 0.427141 4.144247 9.800327 -9.833336 0.000000 -0.000000 0.000000 -1.310392 -3.954362 6.202586 -2.558417 -0.153603 -0.348616 1.586610 -10.094797 -9.759407 0.000000 -0.000000 0.000000 -3.773561 4.619018 4.060608 -1.642372 -2.352267 14.501599 -1.220624 0.121664 -2.334033 3.468458 4.614127 -8.691482 7.137894 -0.381705 -1.494680 -30.394997 -12.220786 6.698723 -46.905457 -8.672210 9.584205 2.734542 -20.728774 1.664387 -2.670713 -0.974183 2.199531 32.648438 14.636853 12.475536 53.761050 9.117212 11.859833 -11.090327 21.341370 -10.255760 1.893099 3.033619 -7.159528 
0.006246 -1.261892 0.986560 -2.532541 -1.502950 83.393385 -3.168978 1.142553 7.201758 0.537498 -8.887162 0.540182 4.166889 9.814049 -9.887045 0.000000 -0.000000 0.000000 -1.279300 -3.929684 6.165980 -2.578828 -0.119996 -0.306295 1.593328 -10.079673 -9.769423 0.000000 -0.000000 0.000000 -3.781922 4.630321 4.014875 -1.632986 -2.362508 14.616114 -1.211574 0.145745 -2.365517 3.464347 4.560657 -8.699574 7.224159 -0.533615 -1.530990 -30.304812 -12.267371 6.720785 -46.979213 -8.702249 9.591935 2.736310 -20.711695 1.731030 -2.816550 -1.046187 2.190120 32.603643 14.751308 12.492897 53.776465 9.219549 11.797388 -11.138812 21.320650 -10.346518 2.061730 3.119902 -7.295145 
0.006232 -1.261814 0.986492 -2.520507 -1.504172 83.309716 -3.167652 1.070257 7.225976 0.494567 -8.919574 0.644147 4.326711 9.762613 -10.042241 0.000000 -0.000000 0.000000 -1.279477 -3.942334 6.238804 -2.582223 -0.094756 -0.285469 1.569478 -10.125164 -9.783316 0.000000 -0.000000 0.000000 -3.767174 4.656592 4.097944 -1.626095 -2.363701 14.660168 -1.208734 0.118533 -2.337175 3.475604 4.414935 -8.752417 7.230819 -0.684160 -1.510095 -30.325535 -12.273860 6.746830 -46.964072 -8.778565 9.575910 2.839785 -20.746775 1.937861 -3.263418 -0.961721 2.120776 32.596358 14.792115 12.456710 53.774964 9.309679 11.748241 -11.257530 21.323703 -10.534599 2.446347 3.117631 -7.614124 
